<svg width="23" height="49" viewBox="0 0 23 49" fill="none" xmlns="http://www.w3.org/2000/svg">
<path id="Vector" d="M22.7755 1.494V1.51035V1.5267V21.3782H22.7722C22.7658 22.14 22.146 22.7561 21.3784 22.7561C21.3752 22.7561 21.3752 22.7555 21.3734 22.7555V22.7571H1.46389C1.44443 22.7577 1.42546 22.7637 1.40603 22.7637C0.635452 22.7637 0.00915374 22.1433 0.00915374 21.3779V21.3028V21.2898C0.732856 10.0057 9.76571 0.972044 21.099 0.153996L21.3759 0.130951C22.1349 0.130951 22.7533 0.727705 22.773 1.47683H22.7762L22.7755 1.494ZM22.7755 47.3211V47.3401H22.7722C22.7526 48.0887 22.1342 48.6852 21.3752 48.6852L21.0982 48.663C9.76536 47.8443 0.732247 38.8105 0.00854492 27.5266V27.5135V27.438C0.00854492 26.6726 0.634843 26.0522 1.40542 26.0522C1.42485 26.0522 1.44382 26.0571 1.46328 26.0588H21.3731V26.0604H21.3777C22.1453 26.0604 22.7654 26.6765 22.7715 27.4377H22.7747V47.2892V47.3057L22.7755 47.3211Z" fill="#FACC15"/>
</svg>
