<svg width="23" height="49" viewBox="0 0 23 49" fill="none" xmlns="http://www.w3.org/2000/svg">
<path id="Vector" d="M22.7834 1.494C22.7834 1.49891 22.7867 1.50381 22.7867 1.51035C22.7867 1.51525 22.7834 1.52016 22.7834 1.5267V21.3782H22.7802C22.7785 22.14 22.1545 22.7561 21.387 22.7561L21.3837 22.7555V22.7571H1.47511C1.45566 22.7577 1.43622 22.7637 1.41431 22.7637C0.643761 22.7637 0.020495 22.1433 0.020495 21.3779C0.020495 21.3476 0.0172279 21.3326 0.020495 21.3028V21.2898C0.743581 10.0057 9.7766 0.972044 21.1073 0.153996L21.3872 0.130951C22.1463 0.130951 22.764 0.727705 22.7805 1.47683H22.7837L22.7834 1.494ZM1.41943 48.6852C0.660433 48.6852 0.0426418 48.0883 0.0231751 47.2896L0.0264458 27.4383C0.0280776 26.6771 0.652145 26.061 1.4227 26.0585C1.4227 26.0585 21.3707 26.052 21.3926 26.052C22.1632 26.052 22.7864 26.6724 22.7864 27.4378C22.7864 27.468 22.7897 27.4831 22.7864 27.5261C22.0633 38.8101 13.0303 47.8435 1.69963 48.6623L1.41943 48.6852Z" fill="#0F213C"/>
</svg>
