<svg width="35" height="36" viewBox="0 0 35 36" fill="none" xmlns="http://www.w3.org/2000/svg">
<g id="Frame" clip-path="url(#clip0_66_343)">
<path id="Vector" d="M0 29.7563H35M0 34.423H35M5.83333 9.92301V6.42301H9.33333M25.6667 6.42301H29.1667V9.92301M5.83333 16.923V20.423H9.33333M25.6667 20.423H29.1667V16.923M17.5 18.0897C14.9227 18.0897 12.8333 16.0003 12.8333 13.423C12.8333 10.8457 14.9227 8.75635 17.5 8.75635C20.0773 8.75635 22.1667 10.8457 22.1667 13.423C22.1667 16.0003 20.0773 18.0897 17.5 18.0897ZM3.5 1.75635H31.5C32.7887 1.75635 33.8333 2.80102 33.8333 4.08968V22.7563C33.8333 24.045 32.7887 25.0897 31.5 25.0897H3.5C2.21134 25.0897 1.16667 24.045 1.16667 22.7563V4.08968C1.16667 2.80102 2.21133 1.75635 3.5 1.75635Z" stroke="#18267A" stroke-width="2.76316"/>
</g>
<defs>
<clipPath id="clip0_66_343">
<rect width="35" height="35" fill="white" transform="translate(0 0.589844)"/>
</clipPath>
</defs>
</svg>
